<?xml version="1.0" standalone="no"?><!DOCTYPE svg PUBLIC "-//W3C//DTD SVG 1.1//EN" "http://www.w3.org/Graphics/SVG/1.1/DTD/svg11.dtd"><svg t="1541040525391" class="icon" style="" viewBox="0 0 1024 1024" version="1.1" xmlns="http://www.w3.org/2000/svg" p-id="4426" xmlns:xlink="http://www.w3.org/1999/xlink" width="200" height="200"><defs><style type="text/css"></style></defs><path d="M645.672954 471.440236l-49.907667 0-18.969027-14.762215c-1.75497-1.854231-4.544503-3.172249-7.892761-3.521197-0.595564-0.071631-1.195222-0.085958-1.763157-0.071631-2.780323-0.014326-5.569856 0.685615-7.77508 2.118244-2.28095 1.461281-3.541663 3.449565-3.745301 5.437849l-19.710924 46.412053-28.455075-88.339977c-1.285273-3.799536-6.135744-6.341429-11.45796-6.253424-4.705162-0.073678-9.222035 1.912559-11.002588 5.212722l-35.337833 82.891895-34.136471-26.390044c-2.294252-1.772366-5.4225-2.662643-8.534374-2.631944l-51.274804 0 0 16.278755 46.248324 0 44.044122 34.066887c2.323928 1.76725 5.481851 2.656503 8.654101 2.62785 4.703115 0.088004 9.18929-1.928932 10.974959-5.218862l28.845978-67.657936 28.600385 88.821955c1.255597 3.76986 6.003737 6.26775 11.222599 6.238075 5.67014 0.060375 10.638291-2.889817 11.45796-6.969739l26.524097-62.371536 9.641591 7.513114c0.981351 0.757247 2.092661 1.356904 3.319605 1.778506 1.679245 0.675382 3.621481 1.083681 5.714142 1.083681l54.715159 0L645.672954 471.440236 645.672954 471.440236z" p-id="4427"></path><path d="M654.455991 671.15072l-45.830815-67.647703c-1.432629-2.134617-3.197832-3.88754-5.198395-5.228071 25.864064-22.319331 44.671409-53.151547 51.599192-89.291652 16.394389-85.244476-39.45971-167.604252-124.671441-183.973058-85.240383-16.35141-167.600159 39.445384-183.983291 124.685767-16.368806 85.226057 39.455617 167.604252 124.681674 183.971012 36.18513 6.955412 71.828932 0.905626 102.148471-14.892175 0.515746 2.352581 1.476631 4.64888 2.88163 6.751774l45.841048 67.662029c6.077416 8.974395 18.299785 11.356652 27.269064 5.27412C658.178779 692.384323 660.533406 680.167071 654.455991 671.15072L654.455991 671.15072M478.474954 595.070974c-63.936171-12.261255-105.802698-74.04746-93.52814-137.968282 12.291954-63.918775 74.067926-105.771999 137.986701-93.494371 63.914682 12.273535 105.813954 74.057693 93.51279 137.966235C604.155375 565.479005 542.395776 607.361905 478.474954 595.070974L478.474954 595.070974M478.474954 595.070974" p-id="4428"></path><path d="M803.735899 716.790176c0.669242-0.849344 1.239224-1.727341 1.736551-2.660596 38.772049-55.109132 63.013149-130.706901 63.013149-202.13879 0-196.550515-159.917176-356.470761-356.48611-356.470761s-356.48611 159.919223-356.48611 356.470761c0 196.582237 159.917176 356.488157 356.48611 356.488157 73.610508 0 142.04718-22.476921 198.907189-60.85295 0.308015-0.190335 0.611937-0.363274 0.907673-0.569982l0.01228 0 0 0c4.634554-3.273557 7.670703-8.635681 7.670703-14.760169 0-9.951653-8.079002-18.033725-18.057261-18.033725-4.370541 0-8.364505 1.622964-11.476379 4.239558-51.483558 35.350113-110.796432 54.379515-177.963181 54.379515-176.929642 0-320.869938-143.960763-320.869938-320.890404 0-176.912245 143.940296-320.856635 320.869938-320.856635s320.871985 143.94439 320.871985 320.856635c0 74.195839-18.279319 130.267902-57.69298 183.243441l0.016373 0.014326c-2.12029 2.950192-3.391237 6.517437-3.391237 10.419304 0 9.920954 8.052396 17.943674 17.962094 17.943674 5.450129 0 10.283204-2.495844 13.588483-6.353708l0.041956 0.014326C803.514865 717.109448 803.616172 716.949812 803.735899 716.790176z" p-id="4429"></path></svg>