<?xml version="1.0" standalone="no"?><!DOCTYPE svg PUBLIC "-//W3C//DTD SVG 1.1//EN" "http://www.w3.org/Graphics/SVG/1.1/DTD/svg11.dtd"><svg t="1541040090541" class="icon" style="" viewBox="0 0 1024 1024" version="1.1" xmlns="http://www.w3.org/2000/svg" p-id="2601" xmlns:xlink="http://www.w3.org/1999/xlink" width="200" height="200"><defs><style type="text/css"></style></defs><path d="M0.1 0h1024v1023.8H0.1z" fill="#FFFFFF" p-id="2602"></path><path d="M512.1 1012.1c-67.5 0-133-13.2-194.7-39.3-59.6-25.2-113.1-61.3-159-107.2-45.9-45.9-82-99.4-107.2-159C25.1 645 11.9 579.4 11.9 511.9s13.2-133 39.3-194.7c25.2-59.6 61.3-113.1 107.2-159s99.4-82 159-107.2c61.7-26.1 127.2-39.3 194.7-39.3s133 13.2 194.7 39.3c59.6 25.2 113.1 61.3 159 107.2 45.9 45.9 82 99.4 107.2 159 26.1 61.7 39.3 127.2 39.3 194.7S999.1 645 973 706.6c-25.2 59.6-61.3 113.1-107.2 159-45.9 45.9-99.4 82-159 107.2-61.6 26.1-127.2 39.3-194.7 39.3z m0-956.1c-61.5 0-121.3 12-177.5 35.8-54.3 23-103.1 55.8-144.9 97.7S114.9 280.2 92 334.4c-23.8 56.2-35.8 115.9-35.8 177.5 0 61.6 12.1 121.3 35.8 177.5 23 54.3 55.8 103.1 97.7 144.9s90.6 74.8 144.9 97.7c56.2 23.8 115.9 35.8 177.5 35.8s121.3-12.1 177.5-35.8c54.3-23 103.1-55.8 144.9-97.7 41.9-41.9 74.8-90.6 97.7-144.9C956 633.2 968 573.5 968 511.9c0-61.6-12.1-121.3-35.8-177.5-23-54.3-55.8-103.1-97.7-144.9-41.9-41.9-90.6-74.8-144.9-97.7C633.4 68 573.7 56 512.1 56z" fill="" p-id="2603"></path><path d="M509.7 196.7c1 0 2.2-0.5 3.7-1.5 3-2 7-5.5 12-10.5 6-5.5 12-9.5 17.9-12 6-2.5 14-1.7 23.9 2.2 5 1.5 9 3.6 12 6.4 3 2.7 5.9 5.4 8.6 7.9 2.7 2.5 5.7 4.6 9 6.4 3.2 1.7 7.4 2.6 12.3 2.6s9.2-0.7 12.7-2.2c3.5-1.5 6.9-2.9 10.1-4.1 3.2-1.2 6.5-2.1 9.7-2.6 3.2-0.5 7.1 0 11.6 1.5 5 2 8.3 4.9 10.1 8.6 1.7 3.7 2.2 7.6 1.5 11.6-0.7 4-2.5 8-5.2 12s-6.1 7.2-10.1 9.7c-9.5 6-16.7 12.1-21.7 18.3-5 6.2-10 12.8-15 19.8-2.5 3.5-5.2 7.5-8.2 12-3 4.5-5.7 9-8.2 13.5-3 5.5-6.2 10.7-9.7 15.7H431.9c-3.5-6-7-11.7-10.5-17.2-3-5-6.2-10-9.7-15-3.5-5-6.5-9.5-9-13.5-5-7.5-10.6-14.1-16.8-19.8-6.2-5.7-12.3-10.8-18.3-15.3-6.5-4.5-11-10.6-13.5-18.3-2.5-7.7-0.2-14.3 6.7-19.8 3.5-2.5 7.5-3.5 12-3s9.2 1.5 14.2 3 9.8 3 14.6 4.5c4.7 1.5 9.1 1.7 13.1 0.7 7-1.5 12.2-4.1 15.7-7.9 3.5-3.7 9.5-8.4 18-13.8 6.5-4 13.7-5.4 21.7-4.1 8 1.2 14 3.9 18 7.9 2 2.5 4.1 4.6 6.4 6.4 2.2 1.7 4.6 3.4 7.1 4.9 2.4 1.7 5.1 3.5 8.1 5z m84.5 149.5c6 8 13.5 16.7 22.4 26.2 7.5 8.5 16.7 18.1 27.7 28.8s23.7 22.1 38.1 34c12 10.5 24.3 22.8 37 37s23.8 30.8 33.3 49.7c9.5 18.9 16.1 40.8 19.8 65.4 3.7 24.7 3.1 52.2-1.9 82.6-4.5 24.9-13.3 48.5-26.6 70.7-13.2 22.2-30.8 41.5-52.7 58-21.9 16.5-48 29.5-78.2 39.3-30.2 9.7-64.4 14.6-102.8 14.6-39.4 0-74.3-5.6-104.7-16.8-30.4-11.2-56.2-25.8-77.4-43.8-21.2-17.9-38-38-50.5-60.2-12.5-22.2-20.7-44.2-24.7-66.2-4.5-24.4-5.1-47.9-1.9-70.3 3.2-22.4 9.1-43.5 17.6-63.2 8.5-19.7 19.1-37.8 31.8-54.2 12.7-16.5 26.6-31.2 41.5-44.1 13-11.5 24.7-22.3 35.2-32.5 10.5-10.2 19.2-19.6 26.2-28 8.5-9.5 16-18.4 22.4-26.9h168.4z m-79.3 229.6l-20.2-20.2-15.7-15.7c-5-5-8.5-8.7-10.5-11.2-4-3.5-9.2-6.4-15.7-8.6-6.5-2.2-12-0.9-16.5 4.1-4 5.5-5 10.8-3 16.1 2 5.2 4.2 9.4 6.7 12.3l11.2 10.5c5.5 6 11.5 12.5 18 19.4 7.5 8 15.7 16.5 24.7 25.4l-0.7 15.7h-50.9c-4.5 0-8.4 1.7-11.6 5.2-3.2 3.5-4.9 7.2-4.9 11.2 0 4 1.5 7.5 4.5 10.5s7 4.5 12 4.5h50.9v26.2h-50.9c-4.5 0-8.4 1.4-11.6 4.1-3.2 2.7-4.9 6.4-4.9 10.8-0.5 4 0.9 7.4 4.1 10.1 3.2 2.7 7.4 4.1 12.3 4.1h50.9v15c0.5 7 2.7 11.8 6.7 14.6 4 2.7 9 4.1 15 4.1 6 0.5 10.8-1.4 14.6-5.6 3.7-4.2 5.6-8.6 5.6-13.1v-15h52.4c5 0 9.1-1.1 12.3-3.4 3.2-2.2 4.6-5.9 4.1-10.8 0-10.5-7-15.7-20.9-15.7H535l0.7-25.4 48.6-0.7c7 0.5 12-0.9 15-4.1 3-3.2 4.5-7.1 4.5-11.6 0-4-1.6-7.6-4.9-10.8-3.2-3.2-8.4-4.9-15.3-4.9H535v-14.2c8.5-8 16.2-15.7 23.2-23.2 6-6 12-12.1 17.9-18.3 6-6.2 10.5-10.6 13.5-13.1 11.5-10 14-18.7 7.5-26.2-3.5-4.5-8-6.7-13.5-6.7s-10.5 2-15 6c-2.5 2-6.7 5.6-12.7 10.8-6 5.2-12 10.6-18 16.1-6.8 6.5-14.5 13.8-23 21.7z m0 0" fill="" p-id="2604"></path></svg>