<?xml version="1.0" standalone="no"?><!DOCTYPE svg PUBLIC "-//W3C//DTD SVG 1.1//EN" "http://www.w3.org/Graphics/SVG/1.1/DTD/svg11.dtd"><svg t="1540048309201" class="icon" style="" viewBox="0 0 1024 1024" version="1.1" xmlns="http://www.w3.org/2000/svg" p-id="5401" xmlns:xlink="http://www.w3.org/1999/xlink" width="200" height="200"><defs><style type="text/css"></style></defs><path d="M529.8 914.3H140c-17.6 0-31.9-14.6-31.9-32.5V382.4c0-22.3 18-40.4 40.1-40.4h175c21.6 0 39.1-17.2 39.1-38.4V146.9c0-22.3 18-40.4 40.1-40.4h287.2c17.6 0 31.9 14.6 31.9 32.5v267.2c0 11.9 9.6 21.6 21.5 21.6 11.8 0 21.5-9.7 21.5-21.6V139c0-42-33.6-76.2-74.8-76.2H329.2v0.5c-11.7-1.8-23.6 1.7-32.7 10l-219 202.5c-9.5 8.8-13.7 21.4-11.8 33.7h-0.5v572.3c0 42 33.6 76.2 74.8 76.2h389.8c11.8 0 21.5-9.7 21.5-21.6v-0.6c0-11.8-9.7-21.5-21.5-21.5z m-431-608.5c-0.6-1.4-1.1-4 1.4-6.3L319.3 97c1.3-1.2 2.7-1.6 3.9-1.6 1 0 1.9 0.3 2.5 0.5 1.3 0.6 3.6 2 3.6 5.3v202.4c0 3.2-2.7 5.9-6 5.9h-219c-3.5 0-4.9-2.3-5.5-3.7z" p-id="5402"></path><path d="M752.9 621c-10.6-5.7-22.4-9.5-34.9-11-3.7-0.4-7.5-0.6-11.4-0.6-21.8 0-42 7.2-58.3 19.3-5.7 4.3-11.1 9.2-15.8 14.6-15.7 18.1-24.8 42-23.8 67.8 0.1 2.1 0.2 4.3 0.5 6.4 2.3 21.3 11.4 40.6 25.1 55.6 17.1 18.8 41.5 30.9 68.4 31.9 5.2 0.2 10.3 0 15.3-0.6 12.5-1.5 24.2-5.3 34.9-11 30.7-16.6 51.6-49.1 51.6-86.4 0-37-21-69.5-51.6-86z m0 125.4c-8.8 10.4-21 17.8-34.9 20.5-4.8 0.9-9.6 1.3-14.7 1-30.8-1.6-55.7-26.5-57.4-57.3-1.9-35 26-64 60.7-64 3.9 0 7.7 0.4 11.4 1.1 13.9 2.7 26.1 10 34.9 20.5 9 10.6 14.4 24.3 14.4 39.2 0 14.8-5.4 28.5-14.4 39z" p-id="5403"></path><path d="M929.5 630c-9.2-4.9-13.9-15.7-10.7-25.7 1.7-5.6 2.6-11.4 2.6-17.4 0-15.6-6.1-30.2-17-41.1l-35.2-35.2c-11-10.9-25.6-17-41.1-17-6 0-11.8 0.9-17.4 2.6-10 3.1-20.8-1.5-25.7-10.7-4.4-8.3-10.6-15.4-18.3-20.6-9.4-6.6-20.8-10.4-33.2-10.4h-49.7c-22.3 0-41.7 12.6-51.4 31.1-4.9 9.2-15.7 13.9-25.7 10.7-5.6-1.7-11.4-2.6-17.4-2.6-15.5 0-30.1 6-41.1 17L513 545.9c-3 3-5.7 6.3-7.9 9.8-6 9.2-9.1 20-9.1 31.3 0 6 0.9 11.8 2.6 17.4 2.8 9.2-0.8 19.1-8.7 24.4-0.7 0.4-1.3 0.9-2 1.2-18.4 9.7-31.1 29.1-31.1 51.4V731c0 22.3 12.7 41.7 31.1 51.4 4.1 2.2 7.4 5.7 9.4 9.7 2.4 4.9 3 10.5 1.3 16-1.7 5.6-2.6 11.4-2.6 17.4 0 15.6 6.1 30.2 17 41.2l35.1 35.1c10.9 10.9 25.6 17 41.1 17 6 0 11.8-0.9 17.4-2.6 7.6-2.3 15.6-0.3 21.2 4.9 1.8 1.6 3.3 3.6 4.6 5.9 9.7 18.4 29.1 31.1 51.4 31.1h49.7c22.3 0 41.7-12.6 51.4-31.1 4.9-9.2 15.7-13.9 25.7-10.7 5.6 1.7 11.4 2.6 17.4 2.6 15.5 0 30.2-6.1 41.1-17l35.1-35.1c10.9-10.9 17-25.6 17-41.1 0-6-0.9-11.8-2.6-17.4-3.1-10 1.5-20.8 10.7-25.7 18.4-9.7 31.1-29.1 31.1-51.4v-49.7c0.1-22.3-12.5-41.6-30.9-51.5z m-8.8 77.6c0 19.4-15.7 35-35 35-9.8 0-18.4 6.2-21.6 15.4l-0.3 0.8c-2.1 6.1-4.7 12.3-7.6 18.2l-0.4 0.8c-4.2 8.7-2.4 19.3 4.5 26.1l16.2 16.2c2.3 2.3 3.5 5.3 3.5 8.5s-1.2 6.2-3.4 8.5l-36.7 36.6c-2.3 2.3-5.3 3.4-8.5 3.4s-6.2-1.2-8.5-3.4l-16.2-16.2c-7-6.9-17.4-8.6-26.2-4.4l-0.8 0.4c-3.9 1.9-8 3.6-12.1 5.3-2 0.7-4.1 1.6-6.1 2.2l-0.8 0.3c-9.3 3.1-15.5 11.9-15.5 21.6 0 18.6-14.6 33.8-32.9 34.9-0.7 0-1.4 0.1-2.1 0.1H704c-19.3 0-35-15.7-35-35 0-9.8-6.2-18.4-15.5-21.6l-0.8-0.3c-6.2-2.1-12.3-4.7-18.2-7.5l-0.8-0.4c-8.7-4.3-19.3-2.5-26.2 4.4l-16.1 16.2c-2.3 2.3-5.3 3.4-8.5 3.4s-6.2-1.2-8.5-3.4l-36.5-36.5c-2.3-2.3-3.5-5.3-3.5-8.5s1.2-6.2 3.4-8.5L554 804c2.8-2.8 4.9-6.3 5.8-10 1.5-5.3 1-11-1.5-16.2l-0.4-0.8c-2.8-5.8-5.4-11.9-7.5-18.1l-0.3-0.8c-3.1-9.3-11.9-15.5-21.6-15.5-15.7 0-28.9-10.3-33.4-24.7-1-3.2-1.6-6.8-1.6-10.4v-5.9c0-19.4 15.7-35 35-35 9.8 0 18.4-6.2 21.6-15.5l0.3-0.8c2.2-6.3 4.7-12.4 7.5-18.2l0.4-0.8c1.1-2.4 1.9-4.9 2.1-7.4 0.7-6.9-1.5-13.8-6.6-18.7L537.6 589c-2.3-2.3-3.4-5.3-3.4-8.5s1.1-6.2 3.4-8.5l24-24 12.5-12.5c2.3-2.3 5.3-3.4 8.5-3.4s6.2 1.2 8.5 3.4l13.4 13.4 2.7 2.7c4.1 4.1 9.6 6.5 15.2 6.7 3.6 0.2 7.5-0.5 11-2.3l0.8-0.4c5.9-2.8 12-5.4 18.2-7.5l0.8-0.3c9.3-3.1 15.5-11.9 15.5-21.6 0-19.3 15.7-35 35-35h5.9c4.2 0 8.2 0.7 11.9 2.1 13.5 4.9 23.1 17.8 23.1 32.9 0 9.8 6.2 18.5 15.5 21.6l0.8 0.3c2 0.7 4 1.5 6.1 2.2 4.1 1.6 8.1 3.3 12.1 5.3l0.8 0.4c8.7 4.2 19.3 2.5 26.2-4.4l16.1-16.1c2.3-2.3 5.3-3.4 8.5-3.4s6.2 1.2 8.5 3.4L876 572c2.3 2.3 3.4 5.3 3.4 8.5s-1.2 6.2-3.4 8.5l-16.2 16.2c-7 7-8.6 17.4-4.5 26.2l0.4 0.8c2.8 5.8 5.4 12 7.5 18.2l0.3 0.8c3.1 9.3 11.9 15.5 21.6 15.5 19.3 0 35 15.7 35 35v5.8h0.6z" p-id="5404"></path><path d="M604.2 485.6H241.7c-14 0-25.3-11.3-25.3-25.3s11.3-25.3 25.3-25.3h362.5c14 0 25.3 11.3 25.3 25.3s-11.3 25.3-25.3 25.3zM497.9 626.5H241.7c-14 0-25.3-11.3-25.3-25.3s11.3-25.3 25.3-25.3h256.2c14 0 25.3 11.3 25.3 25.3s-11.3 25.3-25.3 25.3zM466.3 766.6H241.7c-14 0-25.3-11.3-25.3-25.3s11.3-25.3 25.3-25.3h224.6c14 0 25.3 11.3 25.3 25.3s-11.3 25.3-25.3 25.3z" p-id="5405"></path></svg>