<?xml version="1.0" standalone="no"?><!DOCTYPE svg PUBLIC "-//W3C//DTD SVG 1.1//EN" "http://www.w3.org/Graphics/SVG/1.1/DTD/svg11.dtd"><svg t="1541039638775" class="icon" style="" viewBox="0 0 1024 1024" version="1.1" xmlns="http://www.w3.org/2000/svg" p-id="1610" xmlns:xlink="http://www.w3.org/1999/xlink" width="200" height="200"><defs><style type="text/css"></style></defs><path d="M94.3 124.1v149.2H154c17.9 0 29.8 11.9 29.8 29.8s-11.9 29.8-29.8 29.8H94.3v149.2H154c17.9 0 29.8 11.9 29.8 29.8s-11.9 29.8-29.8 29.8H94.3V691H154c17.9 0 29.8 11.9 29.8 29.8s-11.9 29.8-29.8 29.8H94.3v149.2c0 32.8 26.9 59.7 59.7 59.7h596.7V64.4H154c-32.9 0-59.7 26.9-59.7 59.7zM870 64.4h-59.7v895.1H870c32.8 0 59.7-26.9 59.7-59.7V124.1c0-32.8-26.8-59.7-59.7-59.7z" fill="" p-id="1611"></path><path d="M470 744.3c-17.8 0-31.7-13.9-31.7-31.7v-60.1h-97.1c-17.8 0-31.7-13.9-31.7-31.7 0-17.8 13.9-31.7 31.7-31.7h97.1v-46h-97.1c-17.8 0-31.7-13.9-31.7-31.7 0-17.8 13.9-31.7 31.7-31.7h93.6l-99-99c-6.3-6.3-9.5-13.8-9.5-22.3 0-8.9 3.5-17.1 9.6-22.4l0.1-0.1 0.1-0.1c6.2-6 13.6-9.1 21.9-9.1 8.9 0 17.1 3.5 22.4 9.5l0.1 0.2 89.4 88.7 88.9-89.7c6.4-6.4 13.7-9.5 22.3-9.5 9 0 17.1 3.5 22.4 9.6l0.1 0.1 0.1 0.1c6 6.2 9.3 14.5 9.1 22.9-0.2 8.2-3.5 15.8-9.5 21.3l-0.2 0.2-98.1 99.4h93.8c17.8 0 31.7 13.9 31.7 31.7 0 17.8-13.9 31.7-31.7 31.7h-97.1v46h97.1c17.8 0 31.7 13.9 31.7 31.7 0 17.8-13.9 31.7-31.7 31.7h-97.1v60.1c0 17.7-14.2 31.9-31.7 31.9z" fill="#FFFFFF" p-id="1612"></path></svg>