<?xml version="1.0" standalone="no"?><!DOCTYPE svg PUBLIC "-//W3C//DTD SVG 1.1//EN" "http://www.w3.org/Graphics/SVG/1.1/DTD/svg11.dtd"><svg t="1541040205080" class="icon" style="" viewBox="0 0 1024 1024" version="1.1" xmlns="http://www.w3.org/2000/svg" p-id="3318" xmlns:xlink="http://www.w3.org/1999/xlink" width="200" height="200"><defs><style type="text/css"></style></defs><path d="M63.84603 64.051323h896.30794v895.897354H63.84603z" fill="#FFFFFF" p-id="3319"></path><path d="M512.205293 949.684042c-59.124298 0-116.19567-11.496391-170.392943-34.489174-52.144346-22.171612-98.951083-53.786688-139.188453-94.024058-40.23737-40.23737-71.852446-87.044106-94.024057-139.188452C85.607057 628.19567 74.110666 570.713713 74.110666 511.589415s11.496391-116.19567 34.489174-170.392943c22.171612-51.733761 53.786688-98.540497 94.024057-138.777867S289.668003 130.566159 341.81235 108.805132c54.197273-22.992783 111.268645-34.489174 170.392943-34.489174s116.19567 11.496391 170.392943 34.489174c52.144346 22.171612 98.951083 53.786688 139.188452 94.024058 40.23737 40.23737 71.852446 87.044106 94.024058 139.188452 22.992783 54.197273 34.489174 111.268645 34.489174 170.392943s-11.496391 116.606255-34.489174 170.392943c-22.171612 52.144346-53.786688 98.951083-94.024058 139.188453-40.23737 40.23737-87.044106 71.852446-139.188452 94.024057-54.197273 22.171612-111.67923 33.668003-170.392943 33.668004z m0-836.773056c-53.786688 0-106.34162 10.675221-155.201283 31.204491C309.376103 164.234162 266.675221 192.97514 230.133119 229.517241s-65.693665 79.653569-85.812349 127.281476c-20.939856 49.270249-31.204491 101.414595-31.204491 155.201283s10.675221 106.34162 31.204491 155.201283c20.118685 47.627907 48.859663 90.328789 85.401764 126.87089 36.542101 36.542101 79.242983 65.283079 126.87089 85.401764 49.270249 20.939856 101.414595 31.204491 155.201283 31.204491s106.34162-10.675221 155.201283-31.204491c47.627907-20.118685 90.328789-48.859663 126.870891-85.401764 36.542101-36.542101 65.283079-79.242983 85.401764-126.87089 20.939856-49.270249 31.204491-101.414595 31.204491-155.201283 0-53.786688-10.675221-106.34162-31.204491-155.201283-20.118685-47.627907-48.859663-90.328789-85.401764-126.87089-36.542101-36.542101-79.242983-65.283079-126.870891-85.401764-48.859663-20.939856-101.00401-31.615076-154.790697-31.615077z" fill="" p-id="3320"></path><path d="M759.377706 517.748196h-75.137129c-18.476343 0-32.436247 12.317562-32.436247 31.20449v24.224539c0 18.886929 13.959904 30.38332 32.436247 30.38332h75.137129c18.476343 0 32.436247-11.496391 32.436247-30.38332v-24.224539c-0.410585-18.886929-14.370489-31.204491-32.436247-31.20449z m-64.461908 64.461908c-11.906977 0-21.761026-9.85405-21.761027-21.761026s9.85405-21.761026 21.761027-21.761027 21.761026 9.85405 21.761026 21.761027c-0.410585 11.906977-9.85405 21.761026-21.761026 21.761026z m-64.461909-11.085806v-21.350441c0-33.668003 21.350441-64.461909 53.786688-64.461908H770.052927V367.063352c0-39.826784-25.456295-75.137129-64.461909-75.137129l11.085806 50.091419c6.569366 1.231756 11.496391 6.979952 11.496392 14.37049l-0.821171 21.761026c0 7.801123-3.284683 10.675221-10.675221 10.675221H286.38332c-7.801123 0-10.675221-2.874098-10.675221-10.675221v-21.350441c0-7.801123 2.874098-10.675221 10.675221-10.675221h43.111467l96.898156-53.786688H307.733761c-39.005613 0-75.137129 36.542101-75.137129 76.368886V681.571772c0 39.826784 31.615076 72.263031 70.210104 72.263032h392.930233c39.005613 0 74.315958-35.310345 74.315958-75.13713v-43.111467h-85.81235c-32.436247 0.410585-53.786688-30.38332-53.786688-64.461909z m53.786688-204.060946L654.678428 295.621492c-4.516439-22.582197-30.793905-29.151564-46.806736-24.224539L372.19567 367.063352h312.044907z m0 0" fill="" p-id="3321"></path></svg>